<svg xmlns="http://www.w3.org/2000/svg" width="820" height="664" fill="none" viewBox="0 0 820 664">
  <path stroke="url(#a)" stroke-dasharray="4.08 8.16" stroke-linecap="round" stroke-linejoin="round" stroke-width="2.04" d="m698.005 270.942-101.212 28.489"/>
  <path stroke="url(#b)" stroke-dasharray="4.08 8.16" stroke-linecap="round" stroke-linejoin="round" stroke-width="2.04" d="m125.992 228.104 101.211 28.488"/>
  <path stroke="url(#c)" stroke-dasharray="4.08 8.16" stroke-linecap="round" stroke-linejoin="round" stroke-width="2.04" d="m500.535 613.124-64.07-131.031"/>
  <path stroke="url(#d)" stroke-dasharray="4.08 8.16" stroke-linecap="round" stroke-linejoin="round" stroke-width="2.04" d="m555.199 79.87-50.418 80.35"/>
  <path stroke="url(#e)" stroke-dasharray="4.08 8.16" stroke-linecap="round" stroke-linejoin="round" stroke-width="2.04" d="m425.745 32.914-11.675 98.247"/>
  <path stroke="#EBECF0" stroke-width="31.247" d="M391.128 543.644c108.719 0 196.854-88.135 196.854-196.854 0-108.72-88.135-196.854-196.854-196.854-108.72 0-196.855 88.134-196.855 196.854 0 108.719 88.135 196.854 196.855 196.854Z"/>
  <path fill="#FF8E3C" d="M584.062 81.098v-3.243c3.764-.52 5.783-3.152 5.783-5.906 0-2.723-1.866-5.018-5.508-5.814l-.275-.061v-5.477c1.53.581 2.111 1.989 2.264 2.907l3.305-1.04c-.428-2.02-1.958-4.53-5.569-5.11v-3.275h-2.815v3.244c-3.366.459-5.814 2.968-5.814 5.997 0 2.999 2.02 4.896 5.263 5.63l.551.123v5.63c-2.05-.49-2.999-2.203-3.152-3.947l-3.427.948c.275 2.632 2.326 5.661 6.579 6.181v3.213h2.815Zm-5.049-17.992c0-1.163.765-2.264 2.234-2.632v5.019c-1.53-.306-2.234-1.286-2.234-2.387Zm7.283 9.027c0 1.162-.704 2.264-2.234 2.57v-5.018c1.53.428 2.234 1.346 2.234 2.448Zm13.389-6.181c-1.959 0-3.244-1.255-3.244-2.907 0-1.5 1.224-2.816 3.244-2.816 2.019 0 3.274 1.316 3.274 2.816 0 1.652-1.285 2.906-3.274 2.906Zm0 8.934c-2.387 0-3.703-1.407-3.703-3.029 0-1.622 1.316-3.06 3.703-3.06 2.417 0 3.733 1.438 3.733 3.06s-1.316 3.03-3.733 3.03Zm0 3.091c4.559 0 7.374-2.448 7.374-5.753 0-2.264-1.591-4.13-3.672-4.865 1.897-.704 3.213-2.6 3.213-4.529 0-3.304-2.937-5.6-6.915-5.6s-6.885 2.296-6.885 5.6c0 1.959 1.316 3.825 3.213 4.53-2.111.734-3.672 2.6-3.672 4.864 0 3.305 2.815 5.753 7.344 5.753Zm13.898-10.373c0-4.284 1.285-7.13 4.467-7.13 3.152 0 4.437 2.815 4.437 7.13 0 4.314-1.285 7.13-4.437 7.13-3.151 0-4.467-2.816-4.467-7.13Zm-3.641 0c0 5.11 2.019 10.373 8.108 10.373 6.059 0 8.078-5.263 8.078-10.373 0-5.08-2.019-10.373-8.078-10.373-6.089 0-8.108 5.263-8.108 10.373Zm23.348 9.914v-8.843c0-1.897 1.193-3.305 3.09-3.305 2.02 0 2.877 1.346 2.877 3.06v9.088h3.488v-8.843c0-1.836 1.224-3.305 3.09-3.305 1.989 0 2.877 1.316 2.877 3.06v9.088h3.427v-9.67c0-3.947-2.571-5.66-5.263-5.66-1.928 0-3.672.673-4.835 2.631-.796-1.744-2.509-2.631-4.467-2.631-1.683 0-3.55.795-4.407 2.325v-1.897h-3.396v14.902h3.519Z"/>
  <path fill="#54545E" d="M583.136 99.08c-.326-1.612-1.652-3.692-5.059-3.692-2.692 0-4.916 1.999-4.916 4.426 0 2.163 1.469 3.611 3.672 4.06l2.04.428c1.244.265 1.938 1.02 1.938 1.958 0 1.122-.898 2-2.632 2-2.08 0-3.162-1.388-3.304-2.897l-2.285.653c.224 2.08 1.917 4.447 5.589 4.447 3.305 0 5.121-2.142 5.121-4.386 0-2.04-1.367-3.652-3.917-4.162l-2.081-.428c-1.122-.245-1.693-.938-1.693-1.856 0-1.102 1.02-2.081 2.489-2.081 1.938 0 2.692 1.326 2.835 2.224l2.203-.694Zm4.296 5.018c.082-1.061.939-2.203 2.428-2.203 1.632 0 2.407 1.04 2.448 2.203h-4.876Zm5.141 2.591c-.326.979-1.061 1.734-2.489 1.734-1.468 0-2.652-1.081-2.713-2.591h7.262c.021-.041.062-.367.062-.755 0-3.141-1.796-5.16-4.855-5.16-2.51 0-4.835 2.08-4.835 5.221 0 3.366 2.387 5.325 5.079 5.325 2.387 0 3.958-1.408 4.488-3.142l-1.999-.632Zm10.232-6.528a3.42 3.42 0 0 0-.632-.061c-1.305 0-2.407.632-2.876 1.713v-1.591h-2.305v9.935h2.366v-4.733c0-1.856.836-2.917 2.672-2.917.245 0 .51.02.775.061v-2.407Zm4.223 9.996v-9.935h-2.346v9.935h2.346Zm-2.713-13.423c0 .857.694 1.53 1.53 1.53.857 0 1.55-.673 1.55-1.53a1.55 1.55 0 0 0-1.55-1.55c-.836 0-1.53.693-1.53 1.55Zm7.441 7.364c.081-1.061.938-2.203 2.427-2.203 1.632 0 2.407 1.04 2.448 2.203h-4.875Zm5.14 2.591c-.326.979-1.06 1.734-2.488 1.734-1.469 0-2.652-1.081-2.714-2.591h7.263c.02-.041.061-.367.061-.755 0-3.141-1.795-5.16-4.855-5.16-2.509 0-4.835 2.08-4.835 5.221 0 3.366 2.387 5.325 5.08 5.325 2.386 0 3.957-1.408 4.487-3.142l-1.999-.632Zm3.726.775c.123 1.122 1.224 2.999 4.101 2.999 2.529 0 3.753-1.673 3.753-3.183 0-1.468-.979-2.611-2.856-3.019l-1.509-.306c-.612-.122-1-.51-1-1.04 0-.612.592-1.142 1.428-1.142 1.326 0 1.754.918 1.836 1.489l1.999-.571c-.163-.98-1.061-2.775-3.835-2.775-2.06 0-3.652 1.469-3.652 3.203 0 1.367.918 2.509 2.673 2.897l1.468.326c.796.163 1.163.571 1.163 1.102 0 .612-.51 1.142-1.489 1.142-1.265 0-1.938-.796-2.019-1.693l-2.061.571Zm15.464-11.77v14.463h5.345c2.692 0 4.488-1.673 4.488-3.999 0-1.713-1.061-3.039-2.591-3.447 1.244-.449 2.142-1.591 2.142-3.121 0-2.264-1.632-3.896-4.407-3.896h-4.977Zm2.428 6.119v-4.039h2.162c1.489 0 2.346.796 2.346 2.02 0 1.203-.857 2.019-2.285 2.019h-2.223Zm0 6.263v-4.202h2.57c1.509 0 2.346.877 2.346 2.121 0 1.285-.959 2.081-2.428 2.081h-2.488Z"/>
  <path fill="#FF135F" d="M734.996 278.972v-3.243c3.763-.521 5.783-3.152 5.783-5.906 0-2.723-1.867-5.018-5.508-5.814l-.275-.061v-5.477c1.529.581 2.111 1.989 2.264 2.907l3.304-1.041c-.428-2.019-1.958-4.528-5.568-5.11v-3.274h-2.816v3.244c-3.366.459-5.813 2.968-5.813 5.997 0 2.999 2.019 4.896 5.263 5.63l.55.123v5.63c-2.05-.49-2.998-2.203-3.151-3.947l-3.427.948c.275 2.632 2.325 5.661 6.578 6.181v3.213h2.816Zm-5.049-17.992c0-1.163.765-2.264 2.233-2.632v5.019c-1.53-.306-2.233-1.286-2.233-2.387Zm7.282 9.027c0 1.162-.704 2.264-2.233 2.57v-5.018c1.529.428 2.233 1.346 2.233 2.448Zm13.757 5.385v-19.828h-3.183c-.428 2.081-2.386 3.672-5.232 3.733v2.509h4.804v13.586h3.611Zm7.135-9.914c0-4.284 1.285-7.13 4.468-7.13 3.151 0 4.437 2.815 4.437 7.13 0 4.314-1.286 7.129-4.437 7.129-3.152 0-4.468-2.815-4.468-7.129Zm-3.641 0c0 5.11 2.019 10.373 8.109 10.373 6.058 0 8.078-5.263 8.078-10.373 0-5.08-2.02-10.373-8.078-10.373-6.09 0-8.109 5.263-8.109 10.373Zm22.707 0c0-4.284 1.285-7.13 4.467-7.13 3.152 0 4.437 2.815 4.437 7.13 0 4.314-1.285 7.129-4.437 7.129s-4.467-2.815-4.467-7.129Zm-3.642 0c0 5.11 2.02 10.373 8.109 10.373 6.059 0 8.078-5.263 8.078-10.373 0-5.08-2.019-10.373-8.078-10.373-6.089 0-8.109 5.263-8.109 10.373Zm23.348 9.914v-8.843c0-1.897 1.194-3.305 3.091-3.305 2.019 0 2.876 1.347 2.876 3.06v9.088h3.488v-8.843c0-1.836 1.224-3.305 3.091-3.305 1.989 0 2.876 1.316 2.876 3.06v9.088h3.427v-9.669c0-3.948-2.57-5.661-5.263-5.661-1.927 0-3.672.673-4.834 2.631-.796-1.744-2.509-2.631-4.468-2.631-1.683 0-3.549.795-4.406 2.325v-1.897h-3.397v14.902h3.519Z"/>
  <path fill="#54545E" d="M735.953 296.954c-.327-1.612-1.653-3.692-5.059-3.692-2.693 0-4.917 1.999-4.917 4.426 0 2.163 1.469 3.611 3.672 4.06l2.04.428c1.245.265 1.938 1.02 1.938 1.958 0 1.122-.897 2-2.631 2-2.081 0-3.162-1.388-3.305-2.897l-2.285.653c.225 2.08 1.918 4.447 5.59 4.447 3.304 0 5.12-2.142 5.12-4.386 0-2.04-1.367-3.652-3.917-4.162l-2.08-.428c-1.122-.245-1.694-.938-1.694-1.856 0-1.102 1.02-2.081 2.489-2.081 1.938 0 2.693 1.326 2.836 2.223l2.203-.693Zm4.295 5.018c.081-1.061.938-2.203 2.427-2.203 1.632 0 2.407 1.04 2.448 2.203h-4.875Zm5.14 2.591c-.326.979-1.06 1.734-2.488 1.734-1.469 0-2.652-1.081-2.713-2.591h7.262c.02-.041.061-.367.061-.755 0-3.141-1.795-5.161-4.855-5.161-2.509 0-4.835 2.081-4.835 5.222 0 3.366 2.387 5.325 5.08 5.325 2.386 0 3.957-1.408 4.488-3.142l-2-.632Zm10.234-6.528a3.433 3.433 0 0 0-.633-.061c-1.305 0-2.407.632-2.876 1.713v-1.591h-2.305v9.935h2.366v-4.733c0-1.856.837-2.917 2.673-2.917.244 0 .51.02.775.061v-2.407Zm4.221 9.996v-9.935h-2.345v9.935h2.345Zm-2.713-13.423c0 .857.694 1.53 1.53 1.53.857 0 1.551-.673 1.551-1.53a1.55 1.55 0 0 0-1.551-1.55c-.836 0-1.53.693-1.53 1.55Zm7.442 7.364c.082-1.061.938-2.203 2.428-2.203 1.632 0 2.407 1.04 2.448 2.203h-4.876Zm5.141 2.591c-.327.979-1.061 1.734-2.489 1.734-1.469 0-2.652-1.081-2.713-2.591h7.262c.02-.041.061-.367.061-.755 0-3.141-1.795-5.161-4.855-5.161-2.509 0-4.834 2.081-4.834 5.222 0 3.366 2.386 5.325 5.079 5.325 2.387 0 3.957-1.408 4.488-3.142l-1.999-.632Zm3.725.775c.122 1.122 1.224 2.999 4.1 2.999 2.529 0 3.753-1.673 3.753-3.183 0-1.468-.979-2.611-2.856-3.019l-1.509-.306c-.612-.122-1-.51-1-1.04 0-.612.592-1.142 1.428-1.142 1.326 0 1.755.918 1.836 1.489l1.999-.571c-.163-.98-1.06-2.775-3.835-2.775-2.06 0-3.651 1.469-3.651 3.203 0 1.367.918 2.509 2.672 2.897l1.469.326c.795.163 1.163.571 1.163 1.102 0 .612-.51 1.142-1.489 1.142-1.265 0-1.938-.796-2.02-1.693l-2.06.571Zm21.848 2.999c3.693 0 5.896-2.346 6.549-4.794l-2.244-.734c-.49 1.631-1.877 3.182-4.305 3.182-2.468 0-4.793-1.795-4.793-5.182 0-3.508 2.386-5.242 4.773-5.242 2.428 0 3.774 1.407 4.202 3.162l2.305-.776c-.652-2.529-2.835-4.691-6.507-4.691-3.754 0-7.283 2.835-7.283 7.547 0 4.713 3.407 7.528 7.303 7.528Z"/>
  <path fill="#FF4F42" d="M530.437 626.781v-3.244c3.764-.52 5.783-3.152 5.783-5.905 0-2.724-1.866-5.019-5.508-5.814l-.275-.061v-5.478c1.53.582 2.111 1.989 2.264 2.907l3.305-1.04c-.428-2.02-1.958-4.529-5.569-5.11v-3.274h-2.815v3.243c-3.366.459-5.814 2.968-5.814 5.998 0 2.998 2.02 4.895 5.263 5.63l.551.122v5.63c-2.05-.489-2.999-2.203-3.152-3.947l-3.427.949c.275 2.631 2.326 5.661 6.579 6.181v3.213h2.815Zm-5.049-17.993c0-1.162.765-2.264 2.234-2.631v5.018c-1.53-.306-2.234-1.285-2.234-2.387Zm7.283 9.027c0 1.163-.704 2.264-2.234 2.57v-5.018c1.53.429 2.234 1.347 2.234 2.448Zm11.645-3.611c.306-.153.918-.336 1.866-.336 1.683 0 3.519.979 3.519 3.274 0 1.805-1.346 3.366-3.764 3.366-2.203 0-3.855-1.561-3.947-3.856l-3.58.735c.245 3.304 2.968 6.273 7.558 6.273 4.712 0 7.436-3.091 7.436-6.487 0-3.825-2.969-5.967-5.937-6.028l5.386-4.713v-3.06h-13.77v3.213h9.027l-5.477 4.896 1.683 2.723Zm15.612-.917c0-4.284 1.285-7.13 4.468-7.13 3.151 0 4.437 2.815 4.437 7.13 0 4.314-1.286 7.129-4.437 7.129-3.152 0-4.468-2.815-4.468-7.129Zm-3.641 0c0 5.11 2.02 10.373 8.109 10.373 6.058 0 8.078-5.263 8.078-10.373 0-5.08-2.02-10.374-8.078-10.374-6.089 0-8.109 5.263-8.109 10.374Zm22.706 0c0-4.284 1.285-7.13 4.467-7.13 3.152 0 4.437 2.815 4.437 7.13 0 4.314-1.285 7.129-4.437 7.129s-4.467-2.815-4.467-7.129Zm-3.642 0c0 5.11 2.02 10.373 8.109 10.373 6.059 0 8.078-5.263 8.078-10.373 0-5.08-2.019-10.374-8.078-10.374-6.089 0-8.109 5.263-8.109 10.374Zm23.348 9.914v-8.844c0-1.897 1.194-3.304 3.091-3.304 2.019 0 2.876 1.346 2.876 3.06v9.088h3.488v-8.844c0-1.835 1.224-3.304 3.091-3.304 1.989 0 2.876 1.316 2.876 3.06v9.088h3.427v-9.67c0-3.947-2.57-5.661-5.263-5.661-1.927 0-3.672.674-4.834 2.632-.796-1.744-2.509-2.632-4.468-2.632-1.683 0-3.549.796-4.406 2.326v-1.897h-3.397v14.902h3.519Z"/>
  <path fill="#54545E" d="M553.547 644.762c-.326-1.611-1.652-3.692-5.059-3.692-2.692 0-4.916 1.999-4.916 4.427 0 2.162 1.469 3.61 3.672 4.059l2.04.429c1.244.265 1.938 1.019 1.938 1.958 0 1.122-.898 1.999-2.632 1.999-2.08 0-3.162-1.387-3.304-2.897l-2.285.653c.224 2.081 1.918 4.447 5.589 4.447 3.305 0 5.121-2.142 5.121-4.386 0-2.04-1.367-3.651-3.917-4.161l-2.081-.429c-1.122-.244-1.693-.938-1.693-1.856 0-1.101 1.02-2.081 2.489-2.081 1.938 0 2.692 1.326 2.835 2.224l2.203-.694Zm4.295 5.019c.082-1.061.939-2.204 2.428-2.204 1.632 0 2.407 1.041 2.448 2.204h-4.876Zm5.141 2.59c-.326.979-1.061 1.734-2.489 1.734-1.468 0-2.651-1.081-2.713-2.59h7.262c.021-.041.062-.368.062-.755 0-3.142-1.795-5.161-4.855-5.161-2.509 0-4.835 2.08-4.835 5.222 0 3.366 2.387 5.324 5.079 5.324 2.387 0 3.958-1.407 4.488-3.141l-1.999-.633Zm10.233-6.528a3.42 3.42 0 0 0-.632-.061c-1.305 0-2.407.633-2.876 1.714v-1.591h-2.305v9.934h2.366v-4.733c0-1.856.836-2.917 2.672-2.917.245 0 .51.021.775.062v-2.408Zm4.222 9.996v-9.934h-2.346v9.934h2.346Zm-2.713-13.423c0 .857.694 1.53 1.53 1.53.857 0 1.55-.673 1.55-1.53a1.55 1.55 0 0 0-1.55-1.55c-.836 0-1.53.694-1.53 1.55Zm7.442 7.365c.081-1.061.938-2.204 2.427-2.204 1.632 0 2.407 1.041 2.448 2.204h-4.875Zm5.14 2.59c-.326.979-1.06 1.734-2.488 1.734-1.469 0-2.652-1.081-2.713-2.59h7.262c.02-.041.061-.368.061-.755 0-3.142-1.795-5.161-4.855-5.161-2.509 0-4.835 2.08-4.835 5.222 0 3.366 2.387 5.324 5.08 5.324 2.386 0 3.957-1.407 4.487-3.141l-1.999-.633Zm3.725.775c.123 1.122 1.224 2.999 4.101 2.999 2.529 0 3.753-1.673 3.753-3.182 0-1.469-.979-2.611-2.856-3.019l-1.509-.306c-.612-.123-1-.51-1-1.041 0-.612.592-1.142 1.428-1.142 1.326 0 1.754.918 1.836 1.489l1.999-.571c-.163-.979-1.061-2.774-3.835-2.774-2.06 0-3.652 1.468-3.652 3.202 0 1.367.918 2.509 2.673 2.897l1.469.326c.795.164 1.162.572 1.162 1.102 0 .612-.51 1.142-1.489 1.142-1.265 0-1.938-.795-2.019-1.693l-2.061.571Zm17.912.449v-9.975h2.591c2.509 0 4.569 1.632 4.569 5.018 0 3.346-2.081 4.957-4.59 4.957h-2.57Zm2.652 2.244c3.917 0 7.058-2.57 7.058-7.201 0-4.651-3.101-7.262-7.038-7.262h-5.12v14.463h5.1ZM16.558 254.114c-.326-1.612-1.652-3.692-5.059-3.692-2.693 0-4.916 1.999-4.916 4.426 0 2.163 1.469 3.611 3.672 4.06l2.04.428c1.244.265 1.938 1.02 1.938 1.959 0 1.122-.898 1.999-2.632 1.999-2.08 0-3.162-1.387-3.305-2.897l-2.284.653c.224 2.081 1.917 4.447 5.59 4.447 3.304 0 5.12-2.142 5.12-4.386 0-2.04-1.367-3.651-3.917-4.161l-2.081-.429c-1.122-.245-1.693-.938-1.693-1.856 0-1.102 1.02-2.081 2.489-2.081 1.938 0 2.692 1.326 2.835 2.224l2.203-.694Zm4.295 5.018c.082-1.06.939-2.203 2.428-2.203 1.632 0 2.407 1.041 2.448 2.203h-4.876Zm5.14 2.591c-.325.979-1.06 1.734-2.488 1.734-1.468 0-2.652-1.081-2.713-2.591h7.262c.02-.041.062-.367.062-.755 0-3.141-1.796-5.161-4.856-5.161-2.509 0-4.834 2.081-4.834 5.223 0 3.366 2.387 5.324 5.08 5.324 2.386 0 3.957-1.408 4.487-3.142l-2-.632Zm10.234-6.528a3.429 3.429 0 0 0-.632-.061c-1.306 0-2.407.632-2.876 1.714v-1.592h-2.306v9.935h2.367v-4.733c0-1.856.836-2.917 2.672-2.917.245 0 .51.021.775.061v-2.407Zm4.223 9.996v-9.935h-2.346v9.935h2.346Zm-2.713-13.423c0 .857.693 1.53 1.53 1.53.857 0 1.55-.673 1.55-1.53a1.55 1.55 0 0 0-1.55-1.55c-.837 0-1.53.693-1.53 1.55Zm7.44 7.364c.082-1.06.939-2.203 2.428-2.203 1.632 0 2.407 1.041 2.448 2.203h-4.875Zm5.141 2.591c-.326.979-1.06 1.734-2.489 1.734-1.468 0-2.651-1.081-2.713-2.591h7.263c.02-.041.06-.367.06-.755 0-3.141-1.794-5.161-4.854-5.161-2.51 0-4.835 2.081-4.835 5.223 0 3.366 2.387 5.324 5.08 5.324 2.386 0 3.957-1.408 4.487-3.142l-1.999-.632Zm3.726.775c.123 1.122 1.224 2.999 4.1 2.999 2.53 0 3.754-1.673 3.754-3.182 0-1.469-.98-2.612-2.856-3.02l-1.51-.305c-.612-.123-1-.51-1-1.041 0-.612.592-1.142 1.429-1.142 1.326 0 1.754.918 1.836 1.489l1.999-.571c-.163-.979-1.06-2.775-3.835-2.775-2.06 0-3.652 1.469-3.652 3.203 0 1.367.918 2.509 2.673 2.897l1.468.326c.796.163 1.163.571 1.163 1.102 0 .612-.51 1.142-1.489 1.142-1.265 0-1.938-.795-2.02-1.693l-2.06.571Zm24.398 2.693v-2.285h-6.487v-3.835h5.875v-2.223h-5.875v-3.836h6.487v-2.284h-8.935v14.463h8.935Z"/>
  <path fill="#000" d="M352.904 408.682v-4.325c5.018-.694 7.711-4.202 7.711-7.874 0-3.631-2.489-6.691-7.344-7.752l-.367-.082v-7.303c2.04.776 2.815 2.652 3.019 3.876l4.407-1.387c-.572-2.693-2.612-6.038-7.426-6.813v-4.366h-3.753v4.325c-4.488.612-7.752 3.957-7.752 7.996 0 3.999 2.693 6.528 7.017 7.507l.735.164v7.507c-2.734-.653-3.999-2.938-4.203-5.263l-4.569 1.264c.367 3.509 3.101 7.548 8.772 8.242v4.284h3.753Zm-6.732-23.99c0-1.55 1.02-3.019 2.979-3.509v6.691c-2.04-.408-2.979-1.713-2.979-3.182Zm9.71 12.036c0 1.55-.938 3.019-2.978 3.427v-6.691c2.04.571 2.978 1.795 2.978 3.264Zm7.368-.123c.326 4.162 4.243 7.956 9.955 7.956 6.119 0 9.954-4.162 9.954-9.139 0-5.549-3.794-8.813-9.057-8.813-1.877 0-3.917.653-5.059 1.836l1.632-6.691h11.179v-4.283H367.37l-3.264 13.341 4.611 1.672c.938-1.06 2.529-1.835 4.406-1.835 2.693 0 5.1 1.631 5.1 4.895 0 2.938-2.244 4.815-5.018 4.815-3.06 0-5.141-2.122-5.345-4.937l-4.61 1.183Zm23.607 4.243a3.291 3.291 0 0 0 3.305 3.305c1.835 0 3.345-1.469 3.345-3.305a3.36 3.36 0 0 0-3.345-3.345c-1.836 0-3.305 1.509-3.305 3.345Zm9.939-4.243c.327 4.162 4.244 7.956 9.955 7.956 6.12 0 9.955-4.162 9.955-9.139 0-5.549-3.794-8.813-9.057-8.813-1.877 0-3.917.653-5.059 1.836l1.632-6.691h11.179v-4.283h-14.484l-3.264 13.341 4.611 1.672c.938-1.06 2.529-1.835 4.406-1.835 2.692 0 5.1 1.631 5.1 4.895 0 2.938-2.244 4.815-5.019 4.815-3.06 0-5.14-2.122-5.344-4.937l-4.611 1.183Zm29.075 7.303v-2.652c1.142 1.918 3.304 3.142 6.12 3.142 5.793 0 9.342-4.529 9.342-10.526 0-5.835-3.223-10.363-9.179-10.363-3.06 0-5.345 1.428-6.242 2.978V374.37h-4.652v29.538h4.611Zm10.689-9.996c0 3.917-2.244 6.283-5.345 6.283-3.019 0-5.344-2.366-5.344-6.283 0-3.957 2.325-6.201 5.344-6.201 3.142 0 5.345 2.244 5.345 6.201Z"/>
  <path fill="#54545E" d="m354.436 435.385-4.039-11.261h-2.652l5.385 14.463h2.489l5.467-14.463h-2.591l-4.059 11.261Zm6.271.51c0 1.57 1.285 2.998 3.366 2.998 1.611 0 2.59-.816 3.06-1.57 0 .795.081 1.203.102 1.264h2.203c-.021-.102-.123-.693-.123-1.591v-4.936c0-1.979-1.162-3.713-4.222-3.713-2.448 0-3.999 1.53-4.182 3.243l2.162.49c.102-1 .796-1.795 2.04-1.795 1.306 0 1.877.673 1.877 1.509 0 .347-.163.633-.735.714l-2.55.388c-1.693.245-2.998 1.224-2.998 2.999Zm3.814 1.142c-.938 0-1.448-.612-1.448-1.285 0-.816.592-1.224 1.326-1.346l2.591-.388v.449c0 1.938-1.143 2.57-2.469 2.57Zm10.021 1.55v-14.769h-2.367v14.769h2.367Zm9.4-1.101c0 .408.04.877.081 1.101h2.265a16.107 16.107 0 0 1-.102-1.815v-8.119h-2.367v5.875c0 1.305-.714 2.223-2.081 2.223-1.427 0-1.999-1.04-1.999-2.264v-5.834h-2.366v6.262c0 2.204 1.387 3.958 3.754 3.958 1.162 0 2.325-.49 2.815-1.387Zm4.575-1.591c0 1.57 1.285 2.998 3.366 2.998 1.612 0 2.591-.816 3.06-1.57 0 .795.082 1.203.102 1.264h2.203c-.02-.102-.122-.693-.122-1.591v-4.936c0-1.979-1.163-3.713-4.223-3.713-2.448 0-3.998 1.53-4.182 3.243l2.163.49c.102-1 .795-1.795 2.039-1.795 1.306 0 1.877.673 1.877 1.509 0 .347-.163.633-.734.714l-2.55.388c-1.693.245-2.999 1.224-2.999 2.999Zm3.815 1.142c-.938 0-1.448-.612-1.448-1.285 0-.816.591-1.224 1.326-1.346l2.59-.388v.449c0 1.938-1.142 2.57-2.468 2.57Zm10.695-11.424h-2.142v1.49c0 .877-.469 1.55-1.53 1.55h-.51v2.101h1.836v4.998c0 1.856 1.143 2.958 2.979 2.958.856 0 1.305-.163 1.448-.225v-1.958c-.102.02-.49.082-.816.082-.877 0-1.265-.368-1.265-1.245v-4.61h2.061v-2.101h-2.061v-3.04Zm6.676 12.974v-9.934h-2.346v9.934h2.346Zm-2.713-13.422c0 .856.693 1.53 1.53 1.53.857 0 1.55-.674 1.55-1.53a1.55 1.55 0 0 0-1.55-1.551c-.837 0-1.53.694-1.53 1.551Zm10.154 11.607c-1.449 0-2.775-1.102-2.775-3.162 0-2.06 1.326-3.121 2.775-3.121 1.468 0 2.774 1.061 2.774 3.121 0 2.081-1.306 3.162-2.774 3.162Zm0-8.425c-2.958 0-5.141 2.223-5.141 5.263 0 3.06 2.183 5.283 5.141 5.283 2.978 0 5.161-2.223 5.161-5.283 0-3.04-2.183-5.263-5.161-5.263Zm9.831 4.508c0-1.305.714-2.346 2.06-2.346 1.49 0 2.04.979 2.04 2.203v5.875h2.367v-6.283c0-2.182-1.163-3.937-3.591-3.937-1.101 0-2.284.469-2.937 1.612v-1.326h-2.305v9.934h2.366v-5.732Zm-84.447-165.541v-2.305h-11.852v2.305h4.692v12.158h2.448v-12.158h4.712Zm3.957 10.343c-1.448 0-2.774-1.102-2.774-3.162 0-2.061 1.326-3.121 2.774-3.121 1.469 0 2.775 1.06 2.775 3.121 0 2.08-1.306 3.162-2.775 3.162Zm0-8.425c-2.958 0-5.14 2.223-5.14 5.263 0 3.06 2.182 5.283 5.14 5.283 2.979 0 5.161-2.223 5.161-5.283 0-3.04-2.182-5.263-5.161-5.263Zm10.426-2.734h-2.141v1.489c0 .877-.47 1.551-1.53 1.551h-.51v2.101h1.835v4.998c0 1.856 1.143 2.958 2.979 2.958.857 0 1.305-.164 1.448-.225v-1.958a5.11 5.11 0 0 1-.816.081c-.877 0-1.265-.367-1.265-1.244v-4.61h2.061v-2.101h-2.061v-3.04Zm3.718 10.281c0 1.571 1.285 2.999 3.366 2.999 1.612 0 2.591-.816 3.06-1.571 0 .796.082 1.204.102 1.265h2.203c-.02-.102-.122-.693-.122-1.591v-4.937c0-1.978-1.163-3.712-4.223-3.712-2.448 0-3.998 1.53-4.182 3.243l2.163.49c.102-1 .795-1.795 2.039-1.795 1.306 0 1.877.673 1.877 1.509 0 .347-.163.633-.734.714l-2.55.388c-1.693.245-2.999 1.224-2.999 2.998Zm3.815 1.143c-.938 0-1.448-.612-1.448-1.285 0-.816.591-1.224 1.326-1.347l2.59-.387v.448c0 1.938-1.142 2.571-2.468 2.571Zm10.02 1.55v-14.769h-2.366v14.769h2.366Zm12.565-12.749c.449 0 .714.061.857.102v-2.02c-.163-.082-.653-.204-1.245-.204-2.039 0-3.467 1.346-3.467 3.57v1.367h-1.734v2.06h1.734v7.874h2.386v-7.874h2.305v-2.06h-2.305v-1.306c0-1.224.837-1.509 1.469-1.509Zm9.186 11.648c0 .408.041.877.082 1.101h2.264a16.107 16.107 0 0 1-.102-1.815v-8.119h-2.366v5.875c0 1.305-.714 2.223-2.081 2.223-1.428 0-1.999-1.04-1.999-2.264v-5.834h-2.367v6.262c0 2.203 1.387 3.958 3.754 3.958 1.163 0 2.325-.49 2.815-1.387Zm7.554-4.631c0-1.306.714-2.346 2.06-2.346 1.489 0 2.04.979 2.04 2.203v5.875h2.366v-6.283c0-2.183-1.162-3.937-3.59-3.937-1.101 0-2.285.469-2.937 1.612v-1.326h-2.306v9.934h2.367v-5.732Zm11.041.734c0-1.897 1.142-3.1 2.693-3.1 1.55 0 2.611 1.183 2.611 3.08s-1.081 3.182-2.632 3.182c-1.611 0-2.672-1.265-2.672-3.162Zm7.589-9.771h-2.306v5.997c-.306-.632-1.183-1.428-2.917-1.428-2.794 0-4.732 2.346-4.732 5.202 0 2.999 1.917 5.243 4.773 5.243 1.408 0 2.448-.694 2.917-1.53 0 .408.061 1.061.102 1.285h2.265a16.122 16.122 0 0 1-.102-1.815v-12.954Zm5.275 14.769v-9.934h-2.346v9.934h2.346Zm-2.713-13.423c0 .857.693 1.53 1.53 1.53.856 0 1.55-.673 1.55-1.53a1.55 1.55 0 0 0-1.55-1.55c-.837 0-1.53.694-1.53 1.55Zm8.013 7.691c0-1.306.714-2.346 2.06-2.346 1.489 0 2.04.979 2.04 2.203v5.875h2.366v-6.283c0-2.183-1.163-3.937-3.59-3.937-1.102 0-2.285.469-2.938 1.612v-1.326h-2.305v9.934h2.367v-5.732Zm8.674 6.283c.266 1.999 2.102 3.631 4.733 3.631 3.733 0 5.1-2.468 5.1-5.12v-8.996h-2.285v1.264c-.428-.816-1.387-1.448-2.937-1.448-2.734 0-4.59 2.183-4.59 4.835 0 2.794 1.938 4.834 4.59 4.834 1.448 0 2.448-.673 2.876-1.448v1.04c0 2.02-.938 2.979-2.815 2.979-1.367 0-2.326-.918-2.489-2.142l-2.183.571Zm4.998-3.019c-1.55 0-2.59-1.081-2.59-2.815 0-1.693 1.081-2.795 2.59-2.795 1.469 0 2.55 1.102 2.55 2.795 0 1.713-1.04 2.815-2.55 2.815Z"/>
  <path fill="#30008F" d="M450.578 34.18v-3.244c3.763-.52 5.783-3.152 5.783-5.906 0-2.723-1.867-5.018-5.508-5.814l-.275-.061v-5.477c1.529.581 2.111 1.989 2.264 2.907l3.305-1.04c-.429-2.02-1.959-4.53-5.569-5.11V7.16h-2.816v3.244c-3.365.459-5.813 2.968-5.813 5.997 0 2.999 2.019 4.896 5.263 5.63l.55.123v5.63c-2.05-.49-2.998-2.203-3.151-3.947l-3.427.948c.275 2.632 2.325 5.661 6.578 6.181v3.213h2.816Zm-5.049-17.993c0-1.163.765-2.264 2.233-2.632v5.019c-1.53-.306-2.233-1.286-2.233-2.387Zm7.282 9.027c0 1.162-.704 2.264-2.233 2.57v-5.018c1.529.428 2.233 1.346 2.233 2.448Zm9.748-7.008c-.031-.336-.092-.703-.092-1.01 0-2.05 1.132-3.671 3.458-3.671 2.234 0 3.335 1.468 3.335 3.09 0 1.438-.765 2.632-2.539 3.733l-3.275 2.05c-3.457 2.142-4.651 4.805-4.712 8.201h14.351v-3.244h-9.822c.275-.979 1.071-1.682 2.019-2.264l3.856-2.387c2.387-1.468 3.825-3.58 3.825-6.15 0-3.396-2.601-6.242-6.977-6.242-4.498 0-7.068 3.09-7.068 6.518 0 .397.061.856.092 1.132l3.549.244Zm17.122 0c-.03-.336-.091-.703-.091-1.01 0-2.05 1.132-3.671 3.457-3.671 2.234 0 3.336 1.468 3.336 3.09 0 1.438-.765 2.632-2.54 3.733l-3.274 2.05c-3.458 2.142-4.651 4.805-4.713 8.201h14.351v-3.244h-9.822c.275-.979 1.071-1.682 2.02-2.264l3.855-2.387c2.387-1.468 3.825-3.58 3.825-6.15 0-3.396-2.601-6.242-6.977-6.242-4.498 0-7.068 3.09-7.068 6.518 0 .397.061.856.092 1.132l3.549.244ZM497.385 30.6v-8.843c0-1.897 1.193-3.305 3.09-3.305 2.02 0 2.877 1.347 2.877 3.06V30.6h3.488v-8.843c0-1.836 1.224-3.305 3.091-3.305 1.988 0 2.876 1.316 2.876 3.06V30.6h3.427v-9.67c0-3.946-2.57-5.66-5.263-5.66-1.928 0-3.672.673-4.835 2.631-.795-1.744-2.509-2.631-4.467-2.631-1.683 0-3.55.795-4.406 2.325v-1.897h-3.397V30.6h3.519Z"/>
  <path fill="#54545E" d="M451.535 52.16c-.327-1.61-1.653-3.691-5.059-3.691-2.693 0-4.917 1.999-4.917 4.426 0 2.163 1.469 3.611 3.672 4.06l2.04.428c1.245.265 1.938 1.02 1.938 1.959 0 1.122-.897 1.999-2.631 1.999-2.081 0-3.162-1.388-3.305-2.897l-2.285.653c.225 2.08 1.918 4.447 5.59 4.447 3.304 0 5.12-2.142 5.12-4.386 0-2.04-1.367-3.652-3.917-4.162l-2.08-.428c-1.122-.245-1.694-.938-1.694-1.856 0-1.102 1.02-2.081 2.489-2.081 1.938 0 2.693 1.326 2.836 2.224l2.203-.694Zm4.295 5.02c.081-1.062.938-2.204 2.427-2.204 1.632 0 2.408 1.04 2.448 2.203h-4.875Zm5.141 2.59c-.327.98-1.061 1.734-2.489 1.734-1.469 0-2.652-1.081-2.713-2.59h7.262c.02-.042.061-.368.061-.756 0-3.141-1.795-5.16-4.855-5.16-2.509 0-4.835 2.08-4.835 5.222 0 3.365 2.387 5.324 5.08 5.324 2.387 0 3.957-1.408 4.488-3.142l-1.999-.632Zm10.233-6.528a3.392 3.392 0 0 0-.633-.061c-1.305 0-2.407.632-2.876 1.713v-1.59h-2.305v9.934h2.366v-4.733c0-1.856.837-2.917 2.673-2.917.244 0 .51.02.775.061v-2.407Zm4.222 9.996v-9.935h-2.346v9.935h2.346Zm-2.714-13.423c0 .857.694 1.53 1.53 1.53.857 0 1.551-.673 1.551-1.53a1.55 1.55 0 0 0-1.551-1.55c-.836 0-1.53.693-1.53 1.55Zm7.442 7.364c.082-1.06.938-2.203 2.428-2.203 1.632 0 2.407 1.04 2.448 2.203h-4.876Zm5.141 2.59c-.327.98-1.061 1.735-2.489 1.735-1.469 0-2.652-1.081-2.713-2.59h7.262c.02-.042.061-.368.061-.756 0-3.141-1.795-5.16-4.855-5.16-2.509 0-4.834 2.08-4.834 5.222 0 3.365 2.386 5.324 5.079 5.324 2.387 0 3.958-1.408 4.488-3.142l-1.999-.632Zm3.726.776c.122 1.122 1.224 2.999 4.1 2.999 2.529 0 3.753-1.673 3.753-3.182 0-1.47-.979-2.612-2.855-3.02l-1.51-.306c-.612-.122-1-.51-1-1.04 0-.612.592-1.142 1.428-1.142 1.326 0 1.755.918 1.836 1.489l1.999-.571c-.163-.98-1.06-2.775-3.835-2.775-2.06 0-3.651 1.47-3.651 3.203 0 1.367.918 2.51 2.672 2.897l1.469.326c.796.163 1.163.571 1.163 1.102 0 .612-.51 1.142-1.489 1.142-1.265 0-1.938-.796-2.02-1.693l-2.06.571Zm24.739 2.693h2.672l-5.63-14.463h-2.835l-5.631 14.463h2.591l1.346-3.631h6.12l1.367 3.63Zm-4.427-11.811 2.203 5.915h-4.406l2.203-5.915Z"/>
  <path fill="#FF8E3C" d="M557.556 74.13a3.06 3.06 0 1 0 3.225-5.202 3.06 3.06 0 0 0-3.225 5.202Z"/>
  <path fill="#30008F" d="M427.244 19.738a3.06 3.06 0 1 0-.69 6.082 3.06 3.06 0 0 0 .69-6.082Z"/>
  <path fill="#FF4F42" d="M506.322 625.058a3.06 3.06 0 1 1-2.67-5.506 3.06 3.06 0 0 1 2.67 5.506Z"/>
  <path fill="#FF135F" d="M706.637 267.778a3.06 3.06 0 1 0 5.892-1.658 3.06 3.06 0 0 0-5.892 1.658Z"/>
  <path fill="#7F23E7" d="M117.359 224.94a3.06 3.06 0 1 1-5.892-1.66 3.06 3.06 0 0 1 5.892 1.66Z"/>
  <path fill="#B0B6BF" d="M402.35 453.887h-22.439c-5.634 0-10.2 4.566-10.2 10.199v4.048c0 5.633 4.566 10.199 10.2 10.199h22.439c5.633 0 10.2-4.566 10.2-10.199v-4.048c0-5.633-4.567-10.199-10.2-10.199Z"/>
  <path fill="#fff" d="M381.852 470.421c2.128 0 3.784-1.3 3.784-3.742v-6.597h-1.714v6.498c0 1.428-.771 2.213-2.07 2.213-1.285 0-2.071-.785-2.071-2.213v-6.498h-1.699v6.597c0 2.442 1.656 3.742 3.77 3.742Zm12.828-7.968c-.228-1.128-1.157-2.585-3.541-2.585-1.885 0-3.442 1.4-3.442 3.099 0 1.513 1.028 2.527 2.571 2.841l1.428.3c.871.186 1.356.714 1.356 1.371 0 .786-.628 1.4-1.842 1.4-1.456 0-2.213-.971-2.313-2.028l-1.6.457c.158 1.456 1.343 3.113 3.913 3.113 2.313 0 3.584-1.5 3.584-3.07 0-1.428-.956-2.556-2.741-2.913l-1.457-.3c-.785-.172-1.185-.657-1.185-1.3 0-.771.714-1.456 1.742-1.456 1.357 0 1.885.928 1.985 1.556l1.542-.485Zm3.706 6.183v-6.983h1.813c1.756 0 3.199 1.142 3.199 3.513 0 2.342-1.457 3.47-3.213 3.47h-1.799Zm1.856 1.571c2.742 0 4.941-1.8 4.941-5.041 0-3.256-2.171-5.084-4.927-5.084h-3.584v10.125h3.57Z"/>
  <path fill="#B0B6BF" d="M402.35 294.771h-22.439c-5.634 0-10.2 4.567-10.2 10.2v4.047c0 5.634 4.566 10.2 10.2 10.2h22.439c5.633 0 10.2-4.566 10.2-10.2v-4.047c0-5.633-4.567-10.2-10.2-10.2Z"/>
  <path fill="#fff" d="M381.852 311.305c2.128 0 3.784-1.3 3.784-3.742v-6.597h-1.714v6.497c0 1.428-.771 2.214-2.07 2.214-1.285 0-2.071-.786-2.071-2.214v-6.497h-1.699v6.597c0 2.442 1.656 3.742 3.77 3.742Zm12.828-7.968c-.228-1.129-1.157-2.585-3.541-2.585-1.885 0-3.442 1.399-3.442 3.099 0 1.513 1.028 2.527 2.571 2.841l1.428.3c.871.186 1.356.714 1.356 1.371 0 .785-.628 1.399-1.842 1.399-1.456 0-2.213-.971-2.313-2.027l-1.6.457c.158 1.456 1.343 3.113 3.913 3.113 2.313 0 3.584-1.5 3.584-3.071 0-1.428-.956-2.556-2.741-2.913l-1.457-.299c-.785-.172-1.185-.657-1.185-1.3 0-.771.714-1.456 1.742-1.456 1.357 0 1.885.928 1.985 1.556l1.542-.485Zm3.706 6.183v-6.983h1.813c1.756 0 3.199 1.142 3.199 3.513 0 2.342-1.457 3.47-3.213 3.47h-1.799Zm1.856 1.57c2.742 0 4.941-1.799 4.941-5.04 0-3.256-2.171-5.084-4.927-5.084h-3.584v10.124h3.57Z"/>
  <path stroke="#868E98" stroke-width="1.02" d="M377.871 346.789h27.539"/>
  <path fill="#D9D9D9" d="M524.473 207.928a6.247 6.247 0 0 1-4.468-1.571c-23.85-21.899-53.285-37.797-85.914-45.313a6.246 6.246 0 0 1-4.596-7.47 6.252 6.252 0 0 1 7.401-4.706c34.791 8.015 66.159 24.962 91.561 48.286a6.249 6.249 0 0 1-3.984 10.774Zm17.655 3.726a6.25 6.25 0 0 1 1.932 1.487c28.861 32.999 47.222 75.438 49.842 122.078a6.248 6.248 0 0 1-12.475.702c-2.459-43.762-19.678-83.575-46.772-114.555a6.249 6.249 0 0 1-.897-6.883 6.258 6.258 0 0 1 6.017-3.463c.818.055 1.618.27 2.353.634Zm50.089 144.803a6.247 6.247 0 0 1 1.521 4.533c-7.294 105.547-95.217 188.901-202.613 188.901v-12.494c100.784 0 183.304-78.226 190.148-177.268a6.248 6.248 0 0 1 10.944-3.672Zm-351.13 124.568a6.251 6.251 0 0 1-4.264-2.164c-30.419-35.508-48.8-81.651-48.8-132.071 0-48.938 17.316-93.85 46.151-128.914a6.243 6.243 0 0 1 11.019 3.371 6.247 6.247 0 0 1-1.368 4.564c-27.063 32.913-43.307 75.04-43.307 120.979 0 47.328 17.242 90.613 45.794 123.941a6.248 6.248 0 0 1-5.225 10.294Z"/>
  <path stroke="#FF8E3C" stroke-linecap="round" stroke-width="12.495" d="M524.233 201.756c-24.626-22.612-55.027-39.035-88.737-46.8"/>
  <path stroke="#FF135F" stroke-linecap="round" stroke-width="12.495" d="M539.363 217.254c27.978 31.989 45.767 73.115 48.307 118.316"/>
  <path stroke="#FF4F42" stroke-linecap="round" stroke-width="12.495" d="M587.511 360.56c-7.069 102.294-92.289 183.084-196.38 183.084-47.978-1.528-70.959-11.377-99.276-26.971"/>
  <path stroke="#7F23E7" stroke-linecap="round" stroke-width="12.495" d="M271.332 504.361c-53.76-45.142-77.059-103.456-77.059-157.572 0-99.019 73.111-180.964 168.295-194.797 4.74-.689 9.503-1.205 14.28-1.547"/>
  <path fill="#30008F" d="M395.111 145.458a6.245 6.245 0 0 1 4.429-1.598c6.689.271 13.361.872 19.991 1.8a6.245 6.245 0 0 1 5.301 6.895 6.247 6.247 0 0 1-6.727 5.514l-9.69-.873-9.69-.872a6.248 6.248 0 0 1-3.614-10.866Z"/>
  <path fill="#000" d="M341.296 253.218v-4.204c4.878-.674 7.496-4.085 7.496-7.654 0-3.53-2.419-6.504-7.139-7.535l-.357-.079v-7.099c1.983.753 2.737 2.577 2.935 3.767l4.283-1.348c-.555-2.618-2.538-5.87-7.218-6.623v-4.244h-3.648v4.204c-4.363.595-7.536 3.847-7.536 7.773 0 3.887 2.618 6.346 6.822 7.298l.714.158v7.297c-2.658-.634-3.887-2.855-4.085-5.116l-4.442 1.23c.357 3.411 3.014 7.337 8.527 8.011v4.164h3.648Zm-6.544-23.319c0-1.507.992-2.935 2.896-3.411v6.504c-1.983-.397-2.896-1.666-2.896-3.093Zm9.439 11.699c0 1.507-.912 2.935-2.895 3.331v-6.504c1.983.556 2.895 1.745 2.895 3.173Zm8.562 6.108c1.309.872 3.847 1.467 5.949 1.467 8.725 0 13.167-5.552 13.167-14.872 0-8.21-4.799-12.017-10.153-12.017-5.393 0-9.676 3.649-9.676 8.963 0 5.473 4.243 8.646 8.883 8.646 3.054 0 5.315-1.309 6.266-2.975-.238 4.839-3.133 8.091-8.526 8.091-1.706 0-3.609-.555-4.601-1.19l-1.309 3.887Zm13.802-16.618c0 2.935-2.34 4.799-4.918 4.799-2.657 0-4.918-1.785-4.918-4.799 0-2.895 2.301-4.759 4.918-4.759 2.578 0 4.918 1.904 4.918 4.759Zm13.488 4.641c0-3.253.555-5.751 1.824-7.337.873-1.151 2.102-1.904 3.966-1.904 1.864 0 3.054.753 3.966 1.904 1.23 1.586 1.785 4.084 1.785 7.337 0 3.252-.555 5.75-1.785 7.336-.912 1.151-2.102 1.904-3.966 1.904-1.864 0-3.093-.753-3.966-1.904-1.229-1.586-1.824-4.084-1.824-7.336Zm-4.719 0c0 3.41.555 6.623 2.3 9.24 1.665 2.499 4.362 4.204 8.209 4.204 3.847 0 6.504-1.705 8.17-4.204 1.745-2.617 2.3-5.83 2.3-9.24 0-3.411-.555-6.624-2.3-9.241-1.666-2.499-4.323-4.204-8.17-4.204-3.847 0-6.544 1.705-8.209 4.204-1.745 2.617-2.3 5.83-2.3 9.241Zm28.958-3.213c-.039-.436-.119-.912-.119-1.309 0-2.657 1.468-4.759 4.482-4.759 2.895 0 4.323 1.904 4.323 4.006 0 1.864-.992 3.411-3.292 4.838l-4.244 2.657c-4.481 2.777-6.028 6.227-6.107 10.629h18.6v-4.204h-12.731c.357-1.269 1.388-2.181 2.618-2.935l4.997-3.093c3.093-1.904 4.957-4.64 4.957-7.971 0-4.403-3.371-8.091-9.042-8.091-5.83 0-9.161 4.006-9.161 8.447 0 .516.079 1.111.119 1.468l4.6.317Zm22.571 16.062v-11.461c0-2.459 1.546-4.284 4.005-4.284 2.618 0 3.728 1.745 3.728 3.966v11.779h4.521v-11.461c0-2.38 1.587-4.284 4.006-4.284 2.578 0 3.728 1.706 3.728 3.966v11.779h4.442v-12.532c0-5.116-3.332-7.337-6.822-7.337-2.498 0-4.759.872-6.266 3.411-1.031-2.261-3.252-3.411-5.79-3.411-2.181 0-4.6 1.031-5.711 3.014v-2.459h-4.402v19.314h4.561Z"/>
  <path fill="#7F23E7" d="M12.74 234.777v-3.179c3.69-.51 5.67-3.09 5.67-5.79 0-2.67-1.83-4.919-5.4-5.699l-.27-.06v-5.37c1.5.57 2.07 1.95 2.22 2.85l3.24-1.02c-.42-1.98-1.92-4.439-5.46-5.009v-3.21H9.98v3.18c-3.3.45-5.7 2.909-5.7 5.879 0 2.94 1.98 4.8 5.16 5.519l.54.12v5.52c-2.01-.48-2.94-2.16-3.09-3.87l-3.36.93c.27 2.58 2.28 5.55 6.45 6.06v3.149h2.76Zm-4.95-17.638c0-1.14.75-2.22 2.19-2.58v4.92c-1.5-.3-2.19-1.26-2.19-2.34Zm7.14 8.849c0 1.14-.69 2.22-2.19 2.52v-4.92c1.5.42 2.19 1.32 2.19 2.4Zm5.816 1.02h9.359v4.26h3.54v-4.26h3.269v-3.18h-3.27V211.83h-4.62l-8.278 11.278v3.9Zm9.359-3.18h-6.12l6.12-8.369v8.369Zm12.176-2.279c0-2.46.42-4.35 1.38-5.55.66-.87 1.59-1.44 3-1.44s2.31.57 2.999 1.44c.93 1.2 1.35 3.09 1.35 5.55 0 2.459-.42 4.349-1.35 5.549-.69.87-1.59 1.44-3 1.44s-2.34-.57-3-1.44c-.93-1.2-1.38-3.09-1.38-5.549Zm-3.57 0c0 2.579.42 5.009 1.74 6.989 1.26 1.89 3.3 3.18 6.21 3.18 2.909 0 4.919-1.29 6.179-3.18 1.32-1.98 1.74-4.41 1.74-6.989 0-2.58-.42-5.01-1.74-6.99-1.26-1.889-3.27-3.179-6.18-3.179-2.91 0-4.95 1.29-6.209 3.179-1.32 1.98-1.74 4.41-1.74 6.99Zm22.054 0c0-2.46.42-4.35 1.38-5.55.66-.87 1.59-1.44 3-1.44s2.31.57 3 1.44c.93 1.2 1.35 3.09 1.35 5.55 0 2.459-.42 4.349-1.35 5.549-.69.87-1.59 1.44-3 1.44s-2.34-.57-3-1.44c-.93-1.2-1.38-3.09-1.38-5.549Zm-3.57 0c0 2.579.42 5.009 1.74 6.989 1.26 1.89 3.3 3.18 6.21 3.18s4.92-1.29 6.179-3.18c1.32-1.98 1.74-4.41 1.74-6.989 0-2.58-.42-5.01-1.74-6.99-1.26-1.889-3.27-3.179-6.18-3.179-2.909 0-4.949 1.29-6.209 3.179-1.32 1.98-1.74 4.41-1.74 6.99Zm22.922 9.719v-8.669c0-1.86 1.17-3.24 3.03-3.24 1.98 0 2.82 1.32 2.82 3v8.909h3.42v-8.669c0-1.8 1.2-3.24 3.029-3.24 1.95 0 2.82 1.29 2.82 3v8.909h3.36v-9.479c0-3.87-2.52-5.55-5.16-5.55-1.89 0-3.6.66-4.74 2.58-.78-1.71-2.46-2.58-4.38-2.58-1.649 0-3.479.78-4.319 2.28v-1.86h-3.33v14.609h3.45Z"/>
  <defs>
    <linearGradient id="a" x1="708.7" x2="596.998" y1="270.678" y2="302.121" gradientUnits="userSpaceOnUse">
      <stop stop-color="#F80F6B"/>
      <stop offset="1" stop-color="#FF4F42" stop-opacity=".01"/>
    </linearGradient>
    <linearGradient id="b" x1="115.297" x2="226.999" y1="227.839" y2="259.282" gradientUnits="userSpaceOnUse">
      <stop stop-color="#7F23E7"/>
      <stop offset="1" stop-color="#7F23E7" stop-opacity="0"/>
    </linearGradient>
    <linearGradient id="c" x1="501.549" x2="435.047" y1="620" y2="482.78" gradientUnits="userSpaceOnUse">
      <stop stop-color="#FF4F42"/>
      <stop offset="1" stop-color="#fff" stop-opacity=".01"/>
    </linearGradient>
    <linearGradient id="d" x1="580.191" x2="583.611" y1="39.56" y2="41.783" gradientUnits="userSpaceOnUse">
      <stop stop-color="#FF8439"/>
      <stop offset="1" stop-color="#FFC94C" stop-opacity=".01"/>
    </linearGradient>
    <linearGradient id="e" x1="424.179" x2="412.505" y1="28.21" y2="130.983" gradientUnits="userSpaceOnUse">
      <stop stop-color="#30008F"/>
      <stop offset="1" stop-color="#30008F" stop-opacity="0"/>
    </linearGradient>
  </defs>
</svg>
